<?xml version="1.0" standalone="no"?>
<!DOCTYPE svg PUBLIC "-//W3C//DTD SVG 20010904//EN"
 "http://www.w3.org/TR/2001/REC-SVG-20010904/DTD/svg10.dtd">
<svg version="1.0" xmlns="http://www.w3.org/2000/svg"
 width="1024.000000pt" height="1024.000000pt" viewBox="0 0 1024.000000 1024.000000"
 preserveAspectRatio="xMidYMid meet">

<g transform="translate(0.000000,1024.000000) scale(0.100000,-0.100000)"
fill="#000000" stroke="none">
<path d="M2786 7382 c-3 -5 -130 -357 -281 -783 -152 -426 -337 -942 -411
-1147 -74 -205 -134 -375 -134 -378 0 -2 129 -3 286 -2 l286 3 67 195 67 195
445 3 444 2 69 -200 69 -200 290 0 c271 0 289 1 282 18 -4 9 -107 305 -230
657 -123 352 -264 755 -313 895 -83 235 -248 708 -257 738 -3 9 -80 12 -339
12 -184 0 -337 -4 -340 -8z m489 -1042 c75 -212 137 -389 138 -395 1 -6 -104
-11 -295 -13 -164 -1 -298 -1 -298 1 0 4 150 446 237 696 56 164 57 164 69
130 6 -19 73 -207 149 -419z"/>
<path d="M4460 6230 l0 -1160 275 0 275 0 0 379 0 379 273 5 c225 4 287 9 357
25 229 54 378 146 477 295 114 170 150 435 92 665 -49 193 -192 369 -371 456
-108 53 -242 90 -381 105 -54 6 -293 11 -547 11 l-450 0 0 -1160z m995 686
c108 -29 176 -83 219 -175 31 -68 30 -206 -3 -279 -37 -83 -113 -138 -219
-161 -29 -6 -141 -11 -247 -11 l-195 0 0 320 0 320 198 0 c132 0 213 -5 247
-14z"/>
<path d="M6422 6233 l3 -1158 270 0 270 0 3 393 2 392 113 0 112 -1 74 -127
c41 -70 145 -247 233 -394 l159 -268 284 0 c227 0 285 3 285 13 0 12 -68 126
-384 647 -49 80 -97 157 -107 171 l-18 26 77 31 c146 60 278 182 341 314 54
114 65 177 66 353 0 140 -3 169 -23 235 -40 125 -88 206 -177 296 -67 68 -98
90 -176 128 -193 94 -300 106 -929 106 l-480 0 2 -1157z m1043 676 c130 -40
207 -147 208 -289 2 -164 -82 -275 -238 -315 -44 -11 -112 -15 -262 -15 l-203
0 0 304 c0 167 -3 311 -6 320 -5 14 17 16 214 16 194 0 228 -2 287 -21z"/>
<path d="M6130 3825 l0 -905 160 0 160 0 0 74 0 75 50 -53 c87 -92 209 -132
375 -123 210 12 350 104 445 294 59 117 85 299 69 472 -23 248 -127 421 -301
505 -208 99 -474 57 -603 -98 l-35 -41 0 353 0 352 -160 0 -160 0 0 -905z
m797 369 c-3 -3 -12 -4 -19 -1 -8 3 -5 6 6 6 11 1 17 -2 13 -5z m-55 -270 c66
-23 116 -72 156 -153 l37 -75 0 -145 c-1 -130 -3 -153 -24 -205 -47 -117 -138
-176 -272 -176 -85 0 -158 24 -210 68 -92 79 -124 176 -116 347 7 162 44 246
137 310 75 52 194 64 292 29z m495 -241 c-3 -10 -5 -4 -5 12 0 17 2 24 5 18 2
-7 2 -21 0 -30z m10 -140 c-3 -10 -5 -4 -5 12 0 17 2 24 5 18 2 -7 2 -21 0
-30z"/>
<path d="M3020 3795 l0 -875 170 0 170 0 0 380 0 380 395 0 395 0 0 -380 0
-380 165 0 165 0 0 875 0 875 -165 0 -165 0 -2 -342 -3 -343 -392 -3 -393 -3
0 346 0 345 -170 0 -170 0 0 -875z m317 773 c-3 -8 -6 -5 -6 6 -1 11 2 17 5
13 3 -3 4 -12 1 -19z m490 -864 c-3 -3 -12 -4 -19 -1 -8 3 -5 6 6 6 11 1 17
-2 13 -5z m-490 -176 c-3 -8 -6 -5 -6 6 -1 11 2 17 5 13 3 -3 4 -12 1 -19z"/>
<path d="M4740 3763 c0 -257 4 -465 11 -503 24 -149 125 -285 246 -330 208
-78 440 -41 554 89 l39 44 0 -72 0 -71 160 0 160 0 0 640 0 640 -164 0 -165 0
-3 -412 c-4 -472 -5 -477 -84 -547 -56 -49 -112 -65 -213 -59 -101 6 -152 36
-184 106 -25 58 -35 243 -33 645 l1 267 -162 0 -163 0 0 -437z m123 410 c-13
-2 -33 -2 -45 0 -13 2 -3 4 22 4 25 0 35 -2 23 -4z m970 0 c-7 -2 -19 -2 -25
0 -7 3 -2 5 12 5 14 0 19 -2 13 -5z m-786 -240 c-3 -10 -5 -2 -5 17 0 19 2 27
5 18 2 -10 2 -26 0 -35z m503 -897 c0 -2 -8 -10 -17 -17 -16 -13 -17 -12 -4 4
13 16 21 21 21 13z m-595 -64 c-3 -3 -11 0 -18 7 -9 10 -8 11 6 5 10 -3 15 -9
12 -12z"/>
</g>
</svg>
